<svg xmlns="http://www.w3.org/2000/svg"  viewBox="0 0 128 128" width="128px" height="128px"><path fill="#e2bea6" d="M124,55h-14c0-7.3-6-13.2-13.2-13.1L87.3,42l0,0c-0.1-2.7-2.3-4.8-5-4.8c-8.3,0-15.1,6.7-15.1,15v9.7 c0,5.6,4.5,10.1,10.1,10.1l0,0l0,0l0,0H42.5c-8.2,0-16.1,3.3-21.8,9.1l0,0c-5.5,6-6.6,14.4-8.5,23.1l-2.8,13 c-0.7,3.5,1.9,6.8,5.5,6.8c2.5,0,4.8-1.7,5.4-4.2c0.5-1.8,1-3.7,1.2-4.2c0.9-2.3,2.2-4.4,3.6-6.3l5.4,11.7c0.8,1.8,2.7,3,4.7,3 c3.4,0,5.9-3.2,5-6.5L36,101.1c3.2-1.3,6.6-2.1,10.2-2.1h0.6c11.4,0,21.3,6.9,25.5,17c0.3,0.8,0.8,2.5,1.1,4c0.6,2.3,2.7,4,5.1,4 c3,0,5.3-2.5,5.2-5.5c-0.2-4.8-0.4-12.2,0.2-19.5l0,0H93c2.7,0,5.3,0.9,7.5,2.5c0.7,0.6,1.4,1.2,2,1.9c1.4,1.4,3.6,2,5.7,1.3 c3.5-1.2,4.7-5.1,2.7-8.3c-3.2-5.2-8.9-8.4-15-8.4H85.6c1.4-5.4,3.6-9.7,7.1-11.3c11.8-5.6,31.3,6.6,31.3-16.3c0-0.2,0-0.3,0-0.5 C124,57,124,55,124,55z"/><path fill="#444b54" d="M127,55c0-1.7-1.3-3-3-3h-11.3c0-0.1,0-0.1,0-0.2v-0.1c-0.1-0.5-0.2-0.9-0.4-1.4v-0.1c-0.8-2.5-2.1-4.8-4-6.6 c-3-3-7.1-4.6-11.3-4.6c-0.1,0-7.3,0-7.3,0c-1.3-2.8-4.1-4.8-7.4-4.8c-9.9,0-18,8.1-18.1,18v9.7c0,3.5,1.3,6.8,3.8,9.3 s5.8,3.8,9.3,3.8l0,0c6.2,0,11.4-4.4,12.7-10.2c1,0.4,2.2,0.7,3.3,0.7h0.1c3,0,5.8-1.5,7.5-4l1.5-2.2c0.6-0.8,1.5-1.3,2.5-1.3h5.1 h11c0,0.6,0,1.2,0,1.9v0.5c0,4.7-0.9,7.9-2.6,9.6c-2.4,2.4-7.1,2.2-12.1,2.1S96.1,71.8,91.4,74c-10.6,5-11.7,27.1-10.8,44.7 c0,0.6-0.2,1.2-0.6,1.6s-1,0.7-1.6,0.7c-1,0-1.9-0.7-2.1-1.7c-0.7-2.9-1.1-3.9-1.3-4.5C70.3,103.4,59.2,96,46.8,96h-0.6 c-12.1,0-22.9,7.3-27.4,18.5c-0.1,0.3-0.4,0.9-1.3,4.6c-0.3,1.1-1.3,1.9-2.5,1.9c-1.1,0-1.7-0.6-2-1s-0.7-1.1-0.5-2.2l2.8-13 c0.2-1,0.4-2,0.6-3c1.5-7.2,2.9-14,7.2-18.7c1.1-1.2,1-3.1-0.2-4.2s-3.1-1-4.2,0.2c-5.4,6-7,13.5-8.6,21.6c-0.2,1-0.4,1.9-0.6,2.9 l-2.8,13c-0.5,2.6,0.1,5.2,1.7,7.2s4.1,3.2,6.7,3.2c3.9,0,7.3-2.6,8.3-6.4c0.8-3.1,1.1-3.8,1.1-3.9c3.6-9,12.2-14.7,21.9-14.7H47 c10,0,18.9,5.9,22.7,15.1c0.1,0.3,0.4,1.1,1,3.6c0.9,3.7,4.2,6.3,8,6.3c2.2,0,4.4-0.9,5.9-2.6c1.5-1.6,2.4-3.8,2.2-6.1 C85.5,97,88.4,82,94,79.4c3.3-1.6,7.8-1.4,12.1-1.3c6,0.2,12.2,0.3,16.4-3.8c3-2.9,4.4-7.5,4.4-13.9v-0.5C127,57,127,55,127,55z M84,61.9c0,3.9-2.9,7.1-6.8,7.1l0,0c-1.9,0-3.7-0.7-5-2.1c-1.3-1.3-2.1-3.1-2.1-5v-9.7c0-6.6,5.4-12,12.1-12l0,0 c1.1,0,1.8,0.9,1.8,2V61.9z"/><path fill="#444b54" d="M97.9 85c-1.7 0-3 1.3-3 3s1.3 3 3 3c4 0 7.7 2.1 9.7 5.5 1 1.6.3 3.1 0 3.6s-1.2 1.8-3.1 1.8c-1.2 0-2.3-.6-3-1.5-1-1.3-2.8-1.7-4.2-.7-1.3 1-1.7 2.8-.7 4.2 1.8 2.5 4.7 4 7.8 4 3.5 0 6.6-1.8 8.4-4.8 1.7-3 1.7-6.6-.1-9.7C109.6 88.3 103.9 85 97.9 85zM41.8 111.3c-.4-1.6-2-2.6-3.7-2.2-1.6.4-2.6 2-2.2 3.7l1.8 7.1c.1.4-.1.6-.2.8S37.4 121 37 121c-1.7 0-3 1.3-3 3s1.3 3 3 3c2.1 0 4.1-1 5.4-2.7 1.3-1.7 1.8-3.9 1.2-5.9L41.8 111.3zM29.7 75L29.7 75c1.2 0 2.4.7 2.9 1.9 1 2.3 2.9 4.3 5.4 5.4 1.4.6 2.8.9 4.3.9 2.9 0 5.6-1.2 7.7-3.4l2-2.1c1.5-1.6 3.7-2.6 5.9-2.6l0 0c1.6 0 3.1-1.2 3.2-2.8.1-1.7-1.3-3.2-3-3.2H29.7c-5.9 0-11.2-3.5-13.5-9L10.8 47c-.6-1.3-2-2.2-3.4-1.9-1.9.4-2.9 2.4-2.2 4.1l5.5 13.2C13.9 70 21.4 75 29.7 75z"/><path fill="#fff" d="M97 49A3 3 0 1 0 97 55A3 3 0 1 0 97 49Z"/></svg>