<svg xmlns="http://www.w3.org/2000/svg"  viewBox="0 0 64 64" width="64px" height="64px"><path fill="#cda1a7" d="M58.7,21H46.33a10,10,0,0,1-6-2l-3.1-2.33a10,10,0,0,0-5-2L25,14V5a.49.49,0,0,0-.8-.38c-1,.83-3.21,2.84-5.2,4.85V2a.49.49,0,0,0-.8-.38A21,21,0,0,0,11.93,10L8.4,18.44a10,10,0,0,0,.81,9.25L9,28.05,3.84,45.63,36,54.24l2.36-9.95a8,8,0,0,1,5-3.42l5.86-1.23A16,16,0,0,0,60.39,30.8l1.93-4.09A4,4,0,0,0,58.7,21Z"/><path fill="#c4939c" d="M13.12 31.27L7.02 46.65 3.84 45.63 8.88 28.38 13.12 31.27z"/><path fill="#f9dd8f" d="M33.03 21.14A1.93 1.93 0 1 0 33.03 25A1.93 1.93 0 1 0 33.03 21.14Z"/><path fill="#c4939c" d="M18.75 2.49V7.3a20.46 20.46 0 0 0-3.08 5.14l-3.52 8.47a9.93 9.93 0 0 0 .56 8.83L12 31.21a10 10 0 0 1-3.87-12.3l3.52-8.47A21 21 0 0 1 18 2.11.45.45 0 0 1 18.26 2 .49.49 0 0 1 18.75 2.49zM24.69 14V5a.49.49 0 0 0-.8-.38h0A21 21 0 0 0 19 10.23V13.5z"/><rect width="6.09" height="35.27" x="16.07" y="35.25" fill="#f9dd8f" rx="1" ry="1" transform="rotate(-75 19.117 52.881)"/><path fill="#f7cc8f" d="M12.51,48,10.9,53.83,2.26,51.52a1,1,0,0,1-.7-1.23l1-4a1,1,0,0,1,1.23-.71Z"/><path fill="#ffeb9b" d="M36.68,55.47l-1.06,4a1,1,0,0,1-1.22.71l-9-2.41L27,51.84l9,2.4A1,1,0,0,1,36.68,55.47Z"/><path fill="#f9dd8f" d="M27.01 51.84L25.4 57.72 10.9 53.83 12.51 47.95 27.01 51.84z"/><path fill="#8d6c9f" d="M62.92,22.32A5,5,0,0,0,58.7,20H46.33a9.06,9.06,0,0,1-5.4-1.8l-3.1-2.33a11,11,0,0,0-5.51-2.15L26,13.09V5a1.49,1.49,0,0,0-2.42-1.16A22,22,0,0,0,20,7.5V2A1.49,1.49,0,0,0,17.58.86,22.09,22.09,0,0,0,11,9.58L7.48,18.05a11,11,0,0,0,.36,9.27L3.2,44.64a2,2,0,0,0-1.56,1.44L.59,50A2,2,0,0,0,2,52.48l32.13,8.61a2,2,0,0,0,.52.07,2,2,0,0,0,1.93-1.48l1.06-3.95a2,2,0,0,0-.59-2l1-6.19a7,7,0,0,1,5.46-5.7l5.86-1.23a17.09,17.09,0,0,0,11.88-9.4l1.93-4.09A5,5,0,0,0,62.92,22.32ZM20.17,10.75A20,20,0,0,1,24,6.12v6.78l-4-.4V10.93A1,1,0,0,0,20.17,10.75ZM34.66,59.16h0L2.52,50.55,3.58,46.6l32.13,8.61ZM61.41,26.28l-1.93,4.09A15.08,15.08,0,0,1,49,38.66L43.14,39.9a9,9,0,0,0-7,7.33l-1,5.77-30-8L9.33,29.5a11,11,0,0,0,2.42,2.08,1,1,0,1,0,1.07-1.69A9,9,0,0,1,9.32,18.82l3.53-8.47A20.1,20.1,0,0,1,18,3.12V16.4a1,1,0,0,0,2,0v-1.9l12.13,1.21a9,9,0,0,1,4.5,1.75l3.1,2.33a11.07,11.07,0,0,0,6.6,2.2H58.7a3,3,0,0,1,2.71,4.28Z"/><path fill="#8d6c9f" d="M9.48 40.17a1 1 0 0 0-1.22.71l-.52 1.93a1 1 0 1 0 1.93.52l.52-1.93A1 1 0 0 0 9.48 40.17zM14.31 41.46a1 1 0 0 0-1.22.71l-.52 1.93a1 1 0 1 0 1.93.52L15 42.69A1 1 0 0 0 14.31 41.46zM19.14 42.75a1 1 0 0 0-1.22.71l-.52 1.93a1 1 0 1 0 1.93.52L19.85 44A1 1 0 0 0 19.14 42.75zM24 44a1 1 0 0 0-1.22.71l-.52 1.93a1 1 0 1 0 1.93.52l.52-1.93A1 1 0 0 0 24 44zM28.8 45.34a1 1 0 0 0-1.22.71L27.06 48A1 1 0 1 0 29 48.5l.52-1.93A1 1 0 0 0 28.8 45.34zM33.63 46.64a1 1 0 0 0-1.22.71l-.52 1.93a1 1 0 1 0 1.93.52l.52-1.93A1 1 0 0 0 33.63 46.64zM33 20a3 3 0 1 0 3 3A3 3 0 0 0 33 20zm0 4a1 1 0 1 1 1-1A1 1 0 0 1 33 24z"/></svg>