<svg xmlns="http://www.w3.org/2000/svg"  viewBox="0 0 100 100" width="100px" height="100px"><path fill="#c7ede6" d="M87.215,56.71C88.35,54.555,89,52.105,89,49.5c0-6.621-4.159-12.257-10.001-14.478 C78.999,35.015,79,35.008,79,35c0-11.598-9.402-21-21-21c-9.784,0-17.981,6.701-20.313,15.757C36.211,29.272,34.638,29,33,29 c-7.692,0-14.023,5.793-14.89,13.252C12.906,43.353,9,47.969,9,53.5C9,59.851,14.149,65,20.5,65c0.177,0,0.352-0.012,0.526-0.022 C21.022,65.153,21,65.324,21,65.5C21,76.822,30.178,86,41.5,86c6.437,0,12.175-2.972,15.934-7.614C59.612,80.611,62.64,82,66,82 c4.65,0,8.674-2.65,10.666-6.518C77.718,75.817,78.837,76,80,76c6.075,0,11-4.925,11-11C91,61.689,89.53,58.727,87.215,56.71z"/><path fill="#fdfcef" d="M37.875,41.5c0,0,3.64,0,6.125,0s4.5-2.015,4.5-4.5c0-2.333-1.782-4.229-4.055-4.455 C44.467,32.364,44.5,32.187,44.5,32c0-2.485-2.015-4.5-4.5-4.5c-1.438,0-2.703,0.686-3.527,1.736 C36.333,26.6,34.171,24.5,31.5,24.5c-2.761,0-5,2.239-5,5c0,0.446,0.077,0.87,0.187,1.282C26.045,30.005,25.086,29.5,24,29.5 c-1.781,0-3.234,1.335-3.455,3.055C20.364,32.533,20.187,32.5,20,32.5c-2.485,0-4.5,2.015-4.5,4.5s2.015,4.5,4.5,4.5s9.5,0,9.5,0 h5.375V42h3V41.5z"/><path fill="#472b29" d="M31.5,24c-3.033,0-5.5,2.467-5.5,5.5c0,0.016,0,0.031,0,0.047C25.398,29.192,24.71,29,24,29 c-1.831,0-3.411,1.261-3.858,3.005C20.095,32.002,20.048,32,20,32c-2.757,0-5,2.243-5,5s2.243,5,5,5h14.875 c0.276,0,0.5-0.224,0.5-0.5s-0.224-0.5-0.5-0.5H20c-2.206,0-4-1.794-4-4s1.794-4,4-4c0.117,0,0.23,0.017,0.343,0.032l0.141,0.019 c0.021,0.003,0.041,0.004,0.062,0.004c0.246,0,0.462-0.185,0.495-0.437C21.232,31.125,22.504,30,24,30 c0.885,0,1.723,0.401,2.301,1.1c0.098,0.118,0.241,0.182,0.386,0.182c0.078,0,0.156-0.018,0.228-0.056 c0.209-0.107,0.314-0.346,0.254-0.573C27.054,30.218,27,29.852,27,29.5c0-2.481,2.019-4.5,4.5-4.5 c2.381,0,4.347,1.872,4.474,4.263c0.011,0.208,0.15,0.387,0.349,0.45c0.05,0.016,0.101,0.024,0.152,0.024 c0.15,0,0.296-0.069,0.392-0.192C37.638,28.563,38.779,28,40,28c2.206,0,4,1.794,4,4c0,0.117-0.017,0.23-0.032,0.343l-0.019,0.141 c-0.016,0.134,0.022,0.268,0.106,0.373c0.084,0.105,0.207,0.172,0.34,0.185C46.451,33.247,48,34.949,48,37c0,2.206-1.794,4-4,4 h-6.125c-0.276,0-0.5,0.224-0.5,0.5s0.224,0.5,0.5,0.5H44c2.757,0,5-2.243,5-5c0-2.397-1.689-4.413-4.003-4.877 C44.999,32.082,45,32.041,45,32c0-2.757-2.243-5-5-5c-1.176,0-2.293,0.416-3.183,1.164C36.219,25.76,34.055,24,31.5,24L31.5,24z"/><path fill="#472b29" d="M30,31c-1.403,0-2.609,0.999-2.913,2.341C26.72,33.119,26.301,33,25.875,33 c-1.202,0-2.198,0.897-2.353,2.068C23.319,35.022,23.126,35,22.937,35c-1.529,0-2.811,1.2-2.918,2.732 C20.01,37.87,20.114,37.99,20.251,38c0.006,0,0.012,0,0.018,0c0.13,0,0.24-0.101,0.249-0.232c0.089-1.271,1.151-2.268,2.419-2.268 c0.229,0,0.47,0.042,0.738,0.127c0.022,0.007,0.045,0.01,0.067,0.01c0.055,0,0.11-0.02,0.156-0.054 C23.962,35.537,24,35.455,24,35.375c0-1.034,0.841-1.875,1.875-1.875c0.447,0,0.885,0.168,1.231,0.473 c0.047,0.041,0.106,0.063,0.165,0.063c0.032,0,0.063-0.006,0.093-0.019c0.088-0.035,0.148-0.117,0.155-0.212 C27.623,32.512,28.712,31.5,30,31.5c0.208,0,0.425,0.034,0.682,0.107c0.023,0.007,0.047,0.01,0.07,0.01 c0.109,0,0.207-0.073,0.239-0.182c0.038-0.133-0.039-0.271-0.172-0.309C30.517,31.04,30.256,31,30,31L30,31z"/><path fill="#472b29" d="M43.883,32.5c-1.326,0-2.508,0.897-2.874,2.182c-0.038,0.133,0.039,0.271,0.172,0.309 C41.205,34.997,41.228,35,41.25,35c0.109,0,0.209-0.072,0.24-0.182C41.795,33.748,42.779,33,43.883,33 c0.117,0,0.23,0.014,0.342,0.029c0.012,0.002,0.023,0.003,0.035,0.003c0.121,0,0.229-0.092,0.246-0.217 c0.019-0.137-0.077-0.263-0.214-0.281C44.158,32.516,44.022,32.5,43.883,32.5L43.883,32.5z"/><path fill="#fff" d="M35.405,80H25.5c-0.276,0-0.5-0.224-0.5-0.5s0.224-0.5,0.5-0.5h9.905c0.276,0,0.5,0.224,0.5,0.5 S35.682,80,35.405,80z"/><path fill="#fff" d="M38.5,80h-1c-0.276,0-0.5-0.224-0.5-0.5s0.224-0.5,0.5-0.5h1c0.276,0,0.5,0.224,0.5,0.5 S38.777,80,38.5,80z"/><path fill="#fff" d="M43.491,82H34.5c-0.276,0-0.5-0.224-0.5-0.5s0.224-0.5,0.5-0.5h8.991c0.276,0,0.5,0.224,0.5,0.5 S43.767,82,43.491,82z"/><path fill="#fff" d="M32.5,82h-1c-0.276,0-0.5-0.224-0.5-0.5s0.224-0.5,0.5-0.5h1c0.276,0,0.5,0.224,0.5,0.5 S32.777,82,32.5,82z"/><path fill="#fff" d="M29.5,82h-2c-0.276,0-0.5-0.224-0.5-0.5s0.224-0.5,0.5-0.5h2c0.276,0,0.5,0.224,0.5,0.5 S29.777,82,29.5,82z"/><path fill="#fff" d="M35.5,84h-2c-0.276,0-0.5-0.224-0.5-0.5s0.224-0.5,0.5-0.5h2c0.276,0,0.5,0.224,0.5,0.5 S35.776,84,35.5,84z"/><path fill="#fff" d="M38.5,75c-0.177,0-0.823,0-1,0c-0.276,0-0.5,0.224-0.5,0.5c0,0.276,0.224,0.5,0.5,0.5 c0.177,0,0.823,0,1,0c0.276,0,0.5-0.224,0.5-0.5C39,75.224,38.776,75,38.5,75z"/><path fill="#fff" d="M38.5,77c-0.177,0-4.823,0-5,0c-0.276,0-0.5,0.224-0.5,0.5c0,0.276,0.224,0.5,0.5,0.5 c0.177,0,4.823,0,5,0c0.276,0,0.5-0.224,0.5-0.5C39,77.224,38.776,77,38.5,77z"/><path fill="#fff" d="M43.5,79c-0.177,0-2.823,0-3,0c-0.276,0-0.5,0.224-0.5,0.5c0,0.276,0.224,0.5,0.5,0.5 c0.177,0,2.823,0,3,0c0.276,0,0.5-0.224,0.5-0.5C44,79.224,43.776,79,43.5,79z"/><path fill="#fff" d="M69.5,23h-10c-0.276,0-0.5-0.224-0.5-0.5s0.224-0.5,0.5-0.5h10c0.276,0,0.5,0.224,0.5,0.5 S69.776,23,69.5,23z"/><path fill="#fff" d="M73.5,23h-2c-0.276,0-0.5-0.224-0.5-0.5s0.224-0.5,0.5-0.5h2c0.276,0,0.5,0.224,0.5,0.5 S73.776,23,73.5,23z"/><path fill="#fff" d="M78.5,25h-10c-0.276,0-0.5-0.224-0.5-0.5s0.224-0.5,0.5-0.5h10c0.276,0,0.5,0.224,0.5,0.5 S78.777,25,78.5,25z"/><path fill="#fff" d="M66.5,25h-1c-0.276,0-0.5-0.224-0.5-0.5s0.224-0.5,0.5-0.5h1c0.276,0,0.5,0.224,0.5,0.5 S66.776,25,66.5,25z"/><path fill="#fff" d="M63.375,25H61.5c-0.276,0-0.5-0.224-0.5-0.5s0.224-0.5,0.5-0.5h1.875c0.276,0,0.5,0.224,0.5,0.5 S63.651,25,63.375,25z"/><path fill="#fff" d="M72.5,21h-5c-0.276,0-0.5-0.224-0.5-0.5s0.224-0.5,0.5-0.5h5c0.276,0,0.5,0.224,0.5,0.5 S72.777,21,72.5,21z"/><path fill="#fff" d="M69.5,27h-2c-0.276,0-0.5-0.224-0.5-0.5s0.224-0.5,0.5-0.5h2c0.276,0,0.5,0.224,0.5,0.5 S69.776,27,69.5,27z"/><path fill="#edf7f5" d="M30.388,72.3c-0.155,0-0.281-0.124-0.281-0.277V48.43L52.18,33.012L74.253,48.43v23.593 c0,0.153-0.126,0.277-0.281,0.277H30.388z"/><path fill="#77cbd2" d="M75.03,47.944v3.408L52.454,35.548L29.877,51.352v-3.408l22.576-15.803L75.03,47.944z"/><path fill="#472b29" d="M52.18,32.884l21.364,14.898V71.6H30.816V47.782L52.18,32.884 M52.18,31.141L29.398,47.077v24.945 c0,0.541,0.444,0.978,0.99,0.978h43.585c0.547,0,0.99-0.437,0.99-0.978V47.077L52.18,31.141z"/><path fill="#6f913d" d="M27.709,44.089l24.724-17.933l24.724,17.933v4.897L52.434,31.054L27.709,48.986V44.089z"/><path fill="#472b29" d="M27.709,44.089l0.432,0.556l24.293-17.607l24.015,17.396v3.134l-23.584-17.07 c-0.255-0.193-0.607-0.193-0.862,0l-23.585,17.07v-3.48L27.709,44.089l0.432,0.555L27.709,44.089H27v4.897 c0,0.266,0.154,0.51,0.395,0.628c0.241,0.118,0.532,0.09,0.745-0.072l24.294-17.607l24.293,17.607 c0.214,0.161,0.504,0.19,0.745,0.072c0.241-0.118,0.395-0.362,0.395-0.628v-4.897c0-0.218-0.103-0.424-0.278-0.556L52.865,25.6 c-0.255-0.193-0.607-0.193-0.862,0L27.279,43.533c-0.175,0.132-0.278,0.338-0.278,0.556H27.709z"/><path fill="#bd977c" d="M34.739,57.404c-0.079,0-0.157-0.01-0.231-0.029c-0.916-0.235-1.53-2.087-0.945-4.371 c0.48-1.876,2.019-3.65,3.165-3.65c0.218,0,0.414,0.064,0.601,0.195c0.877,0.619,0.678,2.226,0.109,4.447 C36.892,56.129,35.637,57.404,34.739,57.404z"/><path fill="#472b29" d="M36.728,49.854L36.728,49.854c0.114,0,0.21,0.032,0.312,0.104c0.688,0.485,0.315,2.347-0.086,3.915 c-0.5,1.952-1.627,3.032-2.214,3.032c-0.038,0-0.073-0.004-0.107-0.013c-0.579-0.148-1.107-1.725-0.585-3.763 C34.498,51.365,35.898,49.854,36.728,49.854 M36.727,48.854c-1.475,0-3.139,2.035-3.649,4.026 c-0.617,2.408-0.032,4.637,1.306,4.979c0.117,0.03,0.235,0.044,0.355,0.044c1.252,0,2.62-1.586,3.183-3.784 c0.617-2.408,0.823-4.183-0.306-4.979C37.336,48.943,37.036,48.854,36.727,48.854L36.727,48.854z"/><path fill="#bd977c" d="M50.268,57.404c-0.897,0-2.152-1.275-2.698-3.408c-0.569-2.221-0.769-3.828,0.109-4.447 c0.187-0.131,0.383-0.195,0.601-0.195c1.146,0,2.685,1.774,3.165,3.65c0.584,2.283-0.029,4.136-0.945,4.371 C50.424,57.394,50.347,57.404,50.268,57.404L50.268,57.404z"/><path fill="#472b29" d="M48.279,49.854c0.829,0,2.229,1.511,2.68,3.274c0.522,2.038-0.007,3.614-0.585,3.763 c-0.035,0.009-0.07,0.013-0.107,0.013c-0.588,0-1.714-1.08-2.214-3.032c-0.401-1.567-0.774-3.429-0.087-3.915 C48.068,49.886,48.165,49.854,48.279,49.854 M48.279,48.854c-0.309,0-0.609,0.089-0.889,0.287 c-1.128,0.796-0.922,2.572-0.306,4.979c0.563,2.197,1.931,3.784,3.183,3.784c0.12,0,0.238-0.015,0.355-0.044 c1.338-0.343,1.922-2.572,1.306-4.979C51.419,50.889,49.754,48.854,48.279,48.854L48.279,48.854z"/><path fill="#bd977c" d="M42.5,65.3c-4.301,0-7.8-2.602-7.8-5.8c0-1.328,0.629-2.63,1.771-3.666l0.229-0.208V53.5 c0-3.198,2.602-5.8,5.8-5.8s5.8,2.602,5.8,5.8v2.126l0.229,0.208C49.671,56.87,50.3,58.172,50.3,59.5 C50.3,62.698,46.801,65.3,42.5,65.3z"/><path fill="#472b29" d="M42.5,65.8c-4.576,0-8.3-2.826-8.3-6.3c0-1.47,0.687-2.904,1.935-4.036l0.065-0.059V53.5 c0-3.474,2.826-6.3,6.3-6.3s6.3,2.826,6.3,6.3v1.905l0.065,0.059C50.113,56.596,50.8,58.03,50.8,59.5 C50.8,62.974,47.076,65.8,42.5,65.8z M42.5,48.2c-2.922,0-5.3,2.378-5.3,5.3v2.347l-0.394,0.357 c-1.036,0.94-1.606,2.111-1.606,3.296c0,2.922,3.274,5.3,7.3,5.3s7.3-2.378,7.3-5.3c0-1.185-0.57-2.355-1.606-3.296L47.8,55.847 V53.5C47.8,50.578,45.422,48.2,42.5,48.2z"/><ellipse cx="42.5" cy="61" fill="#fbcd59" rx="4.5" ry="4"/><circle cx="40.5" cy="54.5" r="1" fill="#ef9922"/><path fill="#472b29" d="M40.5,55.75c-0.689,0-1.25-0.561-1.25-1.25s0.561-1.25,1.25-1.25s1.25,0.561,1.25,1.25 S41.189,55.75,40.5,55.75z M40.5,53.75c-0.413,0-0.75,0.336-0.75,0.75s0.337,0.75,0.75,0.75s0.75-0.336,0.75-0.75 S40.913,53.75,40.5,53.75z"/><g><circle cx="44.5" cy="54.5" r="1" fill="#ef9922"/><path fill="#472b29" d="M44.5,55.75c-0.689,0-1.25-0.561-1.25-1.25s0.561-1.25,1.25-1.25s1.25,0.561,1.25,1.25 S45.189,55.75,44.5,55.75z M44.5,53.75c-0.413,0-0.75,0.336-0.75,0.75s0.337,0.75,0.75,0.75s0.75-0.336,0.75-0.75 S44.913,53.75,44.5,53.75z"/></g><g><path fill="#472b29" d="M42.5,60.75c-0.138,0-0.25-0.112-0.25-0.25v-2c0-0.138,0.112-0.25,0.25-0.25s0.25,0.112,0.25,0.25v2 C42.75,60.638,42.638,60.75,42.5,60.75z"/></g><g><ellipse cx="42.5" cy="58" fill="#836f61" rx="1.5" ry="1"/><path fill="#472b29" d="M42.5,59.25c-0.981,0-1.75-0.549-1.75-1.25s0.769-1.25,1.75-1.25s1.75,0.549,1.75,1.25 S43.481,59.25,42.5,59.25z M42.5,57.25c-0.678,0-1.25,0.344-1.25,0.75s0.572,0.75,1.25,0.75s1.25-0.344,1.25-0.75 S43.178,57.25,42.5,57.25z"/></g><g><path fill="#472b29" d="M39.253,63.911c-0.95,0-1.738-0.153-1.802-0.166c-0.136-0.027-0.224-0.159-0.196-0.294 c0.026-0.135,0.151-0.225,0.294-0.196c0.027,0.005,2.885,0.561,4.136-0.464c0.381-0.312,0.565-0.734,0.565-1.291 c0-0.138,0.112-0.25,0.25-0.25s0.25,0.112,0.25,0.25c0,0.706-0.252,1.27-0.749,1.678C41.289,63.761,40.191,63.911,39.253,63.911z"/></g><g><path fill="#472b29" d="M43.954,63.66c-0.026,0-0.054-0.004-0.081-0.014c-1.062-0.362-1.623-1.105-1.623-2.147 c0-0.138,0.112-0.25,0.25-0.25s0.25,0.112,0.25,0.25c0,0.831,0.42,1.379,1.285,1.674c0.13,0.045,0.2,0.187,0.155,0.317 C44.155,63.595,44.059,63.66,43.954,63.66z"/></g><g><path fill="#472b29" d="M45.746,63.91c-0.31,0-0.636-0.016-0.96-0.058c-0.137-0.018-0.233-0.143-0.216-0.28 s0.143-0.235,0.28-0.216c1.254,0.164,2.587-0.099,2.601-0.101c0.142-0.028,0.268,0.061,0.294,0.196 c0.027,0.135-0.061,0.267-0.196,0.294C47.505,63.754,46.709,63.91,45.746,63.91z"/></g><g><path fill="#9f8066" d="M56.236,56.309c-0.514-0.447-1.609-1.792-1.725-5.205c-0.009-0.274,0.287-0.453,0.529-0.323 c1.506,0.809,3.335,1.983,4.099,2.482c0.189,0.123,0.213,0.387,0.053,0.547l-2.476,2.476C56.584,56.416,56.376,56.43,56.236,56.309 z"/><path fill="#472b29" d="M56.46,56.891c-0.197,0-0.394-0.068-0.552-0.204l-0.001-0.001c-0.657-0.571-1.776-2.054-1.897-5.565 c-0.01-0.309,0.142-0.59,0.405-0.753c0.262-0.162,0.592-0.172,0.86-0.028c1.531,0.822,3.402,2.025,4.136,2.504 c0.215,0.141,0.354,0.368,0.381,0.623c0.027,0.258-0.063,0.511-0.247,0.696l-2.477,2.477C56.901,56.806,56.681,56.891,56.46,56.891 z M55.021,51.339c0.142,2.828,0.981,4.04,1.438,4.495l2.253-2.253C57.948,53.085,56.376,52.082,55.021,51.339z"/></g><g><path fill="#9f8066" d="M68.761,56.312c0.513-0.444,1.615-1.789,1.73-5.218c0.009-0.269-0.283-0.446-0.521-0.319 c-1.512,0.811-3.352,1.993-4.113,2.49c-0.186,0.122-0.209,0.381-0.052,0.539l2.484,2.484 C68.418,56.418,68.622,56.432,68.761,56.312z"/><path fill="#472b29" d="M68.539,56.896c-0.217,0-0.435-0.085-0.604-0.253l-2.485-2.485 c-0.183-0.183-0.272-0.435-0.246-0.691c0.026-0.254,0.165-0.48,0.379-0.62c0.736-0.481,2.615-1.688,4.15-2.512 c0.267-0.144,0.596-0.133,0.854,0.028c0.262,0.162,0.412,0.442,0.402,0.748c-0.119,3.524-1.243,5.008-1.902,5.579l-0.001,0 C68.928,56.828,68.733,56.896,68.539,56.896z M68.435,55.933C68.435,55.933,68.435,55.933,68.435,55.933 C68.435,55.933,68.435,55.933,68.435,55.933z M66.288,53.581l2.253,2.253c0.459-0.456,1.297-1.668,1.438-4.495 C68.625,52.082,67.055,53.083,66.288,53.581z"/></g><g><path fill="#ef9922" d="M62.5,65.3c-3.883,0-7.8-1.793-7.8-5.8c0-3.607,3.407-7.8,7.8-7.8s7.8,4.193,7.8,7.8 C70.3,63.507,66.383,65.3,62.5,65.3z"/><path fill="#472b29" d="M62.5,65.8c-4.131,0-8.3-1.948-8.3-6.3c0-3.838,3.626-8.3,8.3-8.3s8.3,4.462,8.3,8.3 C70.8,63.852,66.631,65.8,62.5,65.8z M62.5,52.2c-4.111,0-7.3,3.924-7.3,7.3c0,3.661,3.666,5.3,7.3,5.3s7.3-1.639,7.3-5.3 C69.8,56.124,66.611,52.2,62.5,52.2z"/></g><g><ellipse cx="62.5" cy="62" fill="#e1e0d8" rx="4.5" ry="3"/></g><g><circle cx="59.5" cy="57.5" r="1" fill="#c0d078"/><path fill="#472b29" d="M59.5,58.75c-0.689,0-1.25-0.561-1.25-1.25s0.561-1.25,1.25-1.25s1.25,0.561,1.25,1.25 S60.189,58.75,59.5,58.75z M59.5,56.75c-0.413,0-0.75,0.336-0.75,0.75s0.337,0.75,0.75,0.75s0.75-0.336,0.75-0.75 S59.913,56.75,59.5,56.75z"/></g><g><circle cx="65.5" cy="57.5" r="1" fill="#c0d078"/><path fill="#472b29" d="M65.5,58.75c-0.689,0-1.25-0.561-1.25-1.25s0.561-1.25,1.25-1.25s1.25,0.561,1.25,1.25 S66.189,58.75,65.5,58.75z M65.5,56.75c-0.413,0-0.75,0.336-0.75,0.75s0.337,0.75,0.75,0.75s0.75-0.336,0.75-0.75 S65.913,56.75,65.5,56.75z"/></g><g><ellipse cx="62.5" cy="59" fill="#836f61" rx="1" ry=".5"/><path fill="#472b29" d="M62.5,59.75c-0.713,0-1.25-0.322-1.25-0.75s0.537-0.75,1.25-0.75s1.25,0.322,1.25,0.75 S63.213,59.75,62.5,59.75z M62.5,58.75c-0.484,0-0.75,0.188-0.75,0.25s0.266,0.25,0.75,0.25s0.75-0.188,0.75-0.25 S62.984,58.75,62.5,58.75z"/></g><g><path fill="#472b29" d="M62.5,61.75c-0.138,0-0.25-0.112-0.25-0.25v-2c0-0.138,0.112-0.25,0.25-0.25s0.25,0.112,0.25,0.25v2 C62.75,61.638,62.638,61.75,62.5,61.75z"/></g><g><path fill="#472b29" d="M61.047,63.406c-0.605,0-1.257-0.262-1.724-0.729c-0.098-0.098-0.098-0.256,0-0.354 s0.256-0.098,0.354,0c0.51,0.51,1.316,0.72,1.873,0.489c0.458-0.19,0.7-0.643,0.7-1.312c0-0.138,0.112-0.25,0.25-0.25 s0.25,0.112,0.25,0.25c0,1.18-0.632,1.618-1.009,1.774C61.527,63.363,61.29,63.406,61.047,63.406z"/></g><g><path fill="#472b29" d="M63.953,63.406c-0.243,0-0.48-0.042-0.694-0.131c-0.377-0.156-1.009-0.594-1.009-1.774 c0-0.138,0.112-0.25,0.25-0.25s0.25,0.112,0.25,0.25c0,0.669,0.242,1.123,0.7,1.312c0.555,0.231,1.363,0.021,1.873-0.489 c0.098-0.098,0.256-0.098,0.354,0s0.098,0.256,0,0.354C65.21,63.144,64.559,63.406,63.953,63.406z"/></g><g><path fill="#472b29" d="M38.5,69.75h-6c-0.138,0-0.25-0.112-0.25-0.25s0.112-0.25,0.25-0.25h6c0.138,0,0.25,0.112,0.25,0.25 S38.638,69.75,38.5,69.75z"/></g><g><path fill="#472b29" d="M70.5,69.75h-24c-0.138,0-0.25-0.112-0.25-0.25s0.112-0.25,0.25-0.25h24 c0.138,0,0.25,0.112,0.25,0.25S70.638,69.75,70.5,69.75z"/></g><g><path fill="#472b29" d="M44.5,69.75h-4c-0.138,0-0.25-0.112-0.25-0.25s0.112-0.25,0.25-0.25h4c0.138,0,0.25,0.112,0.25,0.25 S44.638,69.75,44.5,69.75z"/></g><g><path fill="#fdfcef" d="M76.5,39.5c0,0,1.567,0,3.5,0s3.5-1.567,3.5-3.5c0-1.781-1.335-3.234-3.055-3.455 C80.473,32.366,80.5,32.187,80.5,32c0-1.933-1.567-3.5-3.5-3.5c-1.032,0-1.95,0.455-2.59,1.165 c-0.384-1.808-1.987-3.165-3.91-3.165c-2.209,0-4,1.791-4,4c0,0.191,0.03,0.374,0.056,0.558C66.128,30.714,65.592,30.5,65,30.5 c-1.228,0-2.245,0.887-2.455,2.055C62.366,32.527,62.187,32.5,62,32.5c-1.933,0-3.5,1.567-3.5,3.5s1.567,3.5,3.5,3.5s7.5,0,7.5,0 V40h7V39.5z"/><path fill="#472b29" d="M78.25,35C78.112,35,78,34.888,78,34.75c0-1.223,0.995-2.218,2.218-2.218 c0.034,0.009,0.737-0.001,1.244,0.136c0.133,0.036,0.212,0.173,0.176,0.306c-0.036,0.134-0.173,0.213-0.306,0.176 c-0.444-0.12-1.1-0.12-1.113-0.118c-0.948,0-1.719,0.771-1.719,1.718C78.5,34.888,78.388,35,78.25,35z"/><circle cx="71.5" cy="39.5" r=".5" fill="#472b29"/><path fill="#472b29" d="M80,40h-3.5c-0.276,0-0.5-0.224-0.5-0.5s0.224-0.5,0.5-0.5H80c1.654,0,3-1.346,3-3 c0-1.496-1.125-2.768-2.618-2.959c-0.134-0.018-0.255-0.088-0.336-0.196s-0.115-0.244-0.094-0.377C79.975,32.314,80,32.16,80,32 c0-1.654-1.346-3-3-3c-0.85,0-1.638,0.355-2.219,1c-0.125,0.139-0.321,0.198-0.5,0.148c-0.182-0.049-0.321-0.195-0.36-0.379 C73.58,28.165,72.141,27,70.5,27c-1.93,0-3.5,1.57-3.5,3.5c0,0.143,0.021,0.28,0.041,0.418c0.029,0.203-0.063,0.438-0.242,0.54 c-0.179,0.102-0.396,0.118-0.556-0.01C65.878,31.155,65.449,31,65,31c-0.966,0-1.792,0.691-1.963,1.644 c-0.048,0.267-0.296,0.446-0.569,0.405C62.314,33.025,62.16,33,62,33c-1.654,0-3,1.346-3,3s1.346,3,3,3h7.5 c0.276,0,0.5,0.224,0.5,0.5S69.776,40,69.5,40H62c-2.206,0-4-1.794-4-4s1.794-4,4-4c0.059,0,0.116,0.002,0.174,0.006 C62.588,30.82,63.711,30,65,30c0.349,0,0.689,0.061,1.011,0.18C66.176,27.847,68.126,26,70.5,26c1.831,0,3.466,1.127,4.153,2.774 C75.333,28.276,76.155,28,77,28c2.206,0,4,1.794,4,4c0,0.048-0.001,0.095-0.004,0.142C82.739,32.59,84,34.169,84,36 C84,38.206,82.206,40,80,40z"/><path fill="#472b29" d="M74.5,39c-0.159,0-0.841,0-1,0c-0.276,0-0.5,0.224-0.5,0.5c0,0.276,0.224,0.5,0.5,0.5 c0.159,0,0.841,0,1,0c0.276,0,0.5-0.224,0.5-0.5C75,39.224,74.776,39,74.5,39z"/></g></svg>