<svg xmlns="http://www.w3.org/2000/svg"  viewBox="0 0 64 64" width="14px" height="14px"><path fill="#97e0bb" d="M32,53.978c-8.644,0-16.675-1.961-22.612-5.519c-5.31-3.183-8.356-7.266-8.356-11.201 c0-0.406,0.06-0.844,0.183-1.339c0.555-2.07,2.281-3.957,3.631-5.171c1.167-1.06,1.917-2.426,2.172-3.953 c0.066-0.368,0.099-0.75,0.099-1.125c0-2.012,0.208-4.023,0.618-5.974c0.087-0.438,0.373-1.826,0.373-1.826 c0.569-2.822,2.196-5.232,4.465-6.614c0.913-0.56,1.868-0.93,2.839-1.101c0.423-0.077,0.84-0.115,1.242-0.115 c2.279,0,4.088,1.201,6.181,2.592c1.051,0.699,2.138,1.422,3.354,2.027c1.98,0.976,3.826,1.43,5.81,1.43 c3.966,0,6.727-1.835,9.163-3.454c2.094-1.393,3.903-2.594,6.188-2.594c0.401,0,0.816,0.038,1.233,0.113 c0.975,0.172,1.929,0.542,2.841,1.101c2.271,1.384,3.898,3.793,4.467,6.612c0,0,0.286,1.391,0.37,1.816 c0.413,1.965,0.621,3.975,0.621,5.987c0,1.957,0.806,3.759,2.271,5.078c1.27,1.138,2.915,2.913,3.549,4.913 c0.176,0.543,0.265,1.077,0.265,1.596c0,3.935-3.045,8.018-8.356,11.201C48.675,52.017,40.644,53.978,32,53.978z"/><ellipse cx="35.097" cy="30.677" fill="#8d6c9f" rx="2.065" ry="3.097"/><ellipse cx="28.903" cy="30.677" fill="#8d6c9f" rx="2.065" ry="3.097"/><path fill="#5dbc9d" d="M26.274,18.971c-0.616,3.477-1.265,7.145-4.296,9.821c-0.603,0.534-3.902,3.446-8.591,2.807 c-4.64-0.633-7.042-4.256-7.387-4.798c0.058-0.323,0.085-0.645,0.085-0.968c0-2.105,0.215-4.196,0.645-6.243 C6.843,19,6.973,18.382,7.101,17.751c0.587-2.989,2.29-5.725,4.925-7.353c0.96-0.589,2.019-1.039,3.208-1.249 c4.667-0.855,7.432,2.638,11.426,4.644C26.691,15.007,26.654,16.82,26.274,18.971z"/><path fill="#ced9ed" d="M16.517,27.613c-2.864,0-5.194-3.024-5.194-6.742s2.33-6.742,5.194-6.742 c2.863,0,5.193,3.024,5.193,6.742S19.38,27.613,16.517,27.613z"/><path fill="#8d6c9f" d="M16.516,15.129c2.273,0,4.194,2.63,4.194,5.742s-1.92,5.742-4.194,5.742 c-2.273,0-4.194-2.63-4.194-5.742S14.243,15.129,16.516,15.129 M16.516,13.129c-3.421,0-6.194,3.466-6.194,7.742 s2.773,7.742,6.194,7.742c3.421,0,6.194-3.466,6.194-7.742S19.937,13.129,16.516,13.129L16.516,13.129z"/><ellipse cx="16.516" cy="20.871" fill="#8d6c9f" rx="3.097" ry="1.548"/><path fill="#5dbc9d" d="M37.504,19.537c0.62,3.681,1.275,7.563,4.329,10.396c0.608,0.565,3.933,3.647,8.657,2.971 c4.677-0.67,7.096-4.505,7.445-5.079c-0.058-0.342-0.087-0.683-0.087-1.025c0-2.228-0.216-4.441-0.649-6.608 c-0.116-0.624-0.245-1.278-0.375-1.946c-0.591-3.163-2.309-6.059-4.963-7.783c-0.966-0.624-2.034-1.1-3.232-1.322 c-4.704-0.905-7.488,2.793-11.514,4.915C37.083,15.343,37.122,17.26,37.504,19.537z"/><path fill="#ced9ed" d="M47.483,27.613c-2.863,0-5.193-3.024-5.193-6.742s2.33-6.742,5.193-6.742 c2.864,0,5.194,3.024,5.194,6.742S50.348,27.613,47.483,27.613z"/><path fill="#8d6c9f" d="M47.484,15.129c2.273,0,4.194,2.63,4.194,5.742s-1.92,5.742-4.194,5.742 c-2.273,0-4.194-2.63-4.194-5.742S45.211,15.129,47.484,15.129 M47.484,13.129c-3.421,0-6.194,3.466-6.194,7.742 s2.773,7.742,6.194,7.742c3.421,0,6.194-3.466,6.194-7.742S50.904,13.129,47.484,13.129L47.484,13.129z"/><ellipse cx="47.484" cy="20.871" fill="#8d6c9f" rx="3.097" ry="1.548"/><path fill="#f9e3ae" d="M64,37.257C64,45.802,51.058,55,32,55S0,45.802,0,37.257c0-0.542,0.085-1.07,0.213-1.584 c2.958,1.684,7.203,3.781,12.587,5.432c8.776,2.693,15.912,2.767,19.912,2.779c5.608,0.016,12.102,0.034,19.912-2.779 c4.867-1.754,8.579-4.007,11.064-5.752C63.886,35.964,64,36.603,64,37.257z"/><path fill="#f9dd8f" d="M64,37.26C64,45.8,51.06,55,32,55S0,45.8,0,37.26c0-0.55,0.09-1.07,0.21-1.59 c0.41,0.23,0.84,0.48,1.3,0.72C5.43,43.12,16.76,49,32,49c15.52,0,26.99-6.1,30.7-12.98h0.01c0.34-0.23,0.67-0.45,0.98-0.67 C63.89,35.96,64,36.6,64,37.26z"/><path fill="#8d6c9f" d="M26.658,15.194c-0.029,1.057-0.13,2.342-0.385,3.778c-0.616,3.477-1.265,7.145-4.296,9.821 c-0.544,0.481-3.282,2.898-7.254,2.898c-0.432,0-0.877-0.028-1.337-0.091c-2.932-0.4-4.971-1.994-6.161-3.25l-1.032,1.895 c1.482,1.424,3.761,2.971,6.914,3.401c0.536,0.073,1.08,0.11,1.616,0.11c3.069,0,6.131-1.213,8.622-3.416 c3.57-3.152,4.309-7.325,4.961-11.007c0.182-1.025,0.305-2.064,0.371-3.107L26.658,15.194z"/><path fill="#8d6c9f" d="M49.55,31.67c-0.29,0.01-0.53,0.02-0.55,0.02c-0.932-0.015-1.801-0.162-2.585-0.39 c-0.439-0.127-0.905,0.071-1.135,0.466l-0.017,0.03c-0.333,0.574-0.033,1.31,0.605,1.491c1.076,0.306,2.176,0.462,3.282,0.462 c0.16,0,0.32,0,0.48-0.01c0.61-0.02,1.08-0.57,0.99-1.18C50.55,32.03,50.08,31.64,49.55,31.67z M37.6,18.97 c-0.141-0.806-0.234-1.567-0.294-2.268c-0.061-0.713-0.832-1.128-1.468-0.8l-0.036,0.019 c-0.364,0.187-0.585,0.576-0.549,0.984c0.072,0.814,0.176,1.626,0.317,2.426c0.65,3.68,1.39,7.86,4.96,11.01 c0.441,0.386,0.896,0.743,1.366,1.067c0.494,0.34,1.171,0.199,1.47-0.321l0.02-0.035c0.267-0.463,0.121-1.046-0.319-1.349 c-0.594-0.409-0.995-0.763-1.167-0.913C38.87,26.12,38.22,22.45,37.6,18.97z M56.65,28.35c-0.77,0.81-1.88,1.76-3.37,2.44 c-0.47,0.21-0.69,0.74-0.54,1.23c0.14,0.45,0.55,0.73,0.99,0.73c0.15,0,0.3-0.03,0.44-0.1c1.46-0.67,2.63-1.56,3.51-2.41 L56.65,28.35z"/><path fill="#8d6c9f" d="M16.653,11.061c1.966,0,3.654,1.122,5.608,2.42c1.077,0.716,2.191,1.456,3.472,2.095 c2.124,1.047,4.116,1.535,6.267,1.535c4.28,0,7.179-1.927,9.738-3.628c1.955-1.299,3.643-2.421,5.613-2.421 c0.339,0,0.691,0.033,1.055,0.098c0.843,0.149,1.676,0.473,2.48,0.966c2.025,1.234,3.48,3.399,3.994,5.946l0.098,0.478 c0.093,0.453,0.185,0.897,0.274,1.353c0.396,1.883,0.597,3.823,0.597,5.766c0,2.216,0.951,4.343,2.612,5.837 c1.66,1.488,2.816,3.073,3.26,4.474c0.142,0.436,0.213,0.866,0.213,1.277c0,7.425-12.294,15.699-29.935,15.699 S2.065,44.682,2.065,37.257c0-0.323,0.05-0.68,0.144-1.059c0.387-1.441,1.57-3.108,3.339-4.7 c1.317-1.196,2.201-2.807,2.487-4.518c0.077-0.437,0.116-0.878,0.116-1.31c0-1.944,0.201-3.884,0.602-5.793 c0.084-0.427,0.175-0.87,0.268-1.323l0.1-0.487c0.513-2.541,1.968-4.707,3.997-5.943c0.8-0.49,1.633-0.814,2.486-0.965 C15.961,11.094,16.314,11.061,16.653,11.061 M16.653,9.017c-0.455,0-0.928,0.041-1.421,0.131 c-1.181,0.208-2.248,0.654-3.2,1.237c-2.645,1.612-4.338,4.322-4.936,7.281c-0.128,0.625-0.256,1.237-0.37,1.821 c-0.427,2.028-0.64,4.098-0.64,6.182c0,0.32-0.029,0.639-0.085,0.959c-0.213,1.279-0.853,2.459-1.848,3.363 c-1.451,1.306-3.313,3.348-3.939,5.682C0.085,36.186,0,36.715,0,37.257C0,45.802,12.942,55,32,55s32-9.198,32-17.743 c0-0.654-0.114-1.292-0.312-1.902c-0.696-2.196-2.446-4.113-3.84-5.364c-1.251-1.125-1.934-2.683-1.934-4.322 c0-2.084-0.213-4.153-0.64-6.182c-0.114-0.584-0.242-1.195-0.37-1.821c-0.597-2.959-2.29-5.669-4.936-7.281 c-0.952-0.584-2.019-1.029-3.2-1.237c-0.493-0.089-0.963-0.13-1.417-0.13c-5.509,0-8.44,6.049-15.351,6.049 c-2.075,0-3.797-0.557-5.347-1.32C23.091,11.97,20.497,9.017,16.653,9.017L16.653,9.017z"/><g><path fill="#8d6c9f" d="M34.037,45.087c-0.446,0-0.888-0.002-1.324-0.003c-3.496-0.011-10.771-0.032-19.583-2.764 c-4.314-1.336-8.485-3.154-12.396-5.402c-0.479-0.275-0.645-0.887-0.369-1.365c0.275-0.479,0.888-0.644,1.365-0.369 c3.783,2.176,7.817,3.934,11.991,5.227c8.526,2.643,15.338,2.663,18.997,2.674c5.419,0.017,11.542,0.036,18.944-2.658 c3.707-1.35,7.234-3.201,10.482-5.503c0.451-0.32,1.075-0.215,1.394,0.237c0.319,0.45,0.214,1.074-0.237,1.394 c-3.394,2.406-7.079,4.341-10.955,5.751C45.216,44.899,39.287,45.087,34.037,45.087z"/></g><g><path fill="#8d6c9f" d="M11.601,47.239c-0.131,0-0.264-0.025-0.392-0.08c-0.508-0.216-0.745-0.803-0.528-1.312 l0.782-1.84c0.215-0.508,0.804-0.745,1.312-0.528c0.508,0.216,0.745,0.803,0.528,1.312l-0.782,1.84 C12.359,47.011,11.989,47.239,11.601,47.239z"/><path fill="#8d6c9f" d="M16.548,48.974c-0.091,0-0.183-0.012-0.273-0.038c-0.531-0.15-0.84-0.703-0.689-1.234 l0.546-1.925c0.151-0.533,0.707-0.845,1.234-0.689c0.531,0.15,0.84,0.703,0.689,1.234l-0.546,1.925 C17.384,48.687,16.983,48.974,16.548,48.974z"/><path fill="#8d6c9f" d="M21.639,50.126c-0.057,0-0.115-0.005-0.174-0.015c-0.544-0.096-0.907-0.613-0.812-1.158 l0.345-1.97c0.095-0.543,0.604-0.907,1.158-0.812c0.544,0.096,0.907,0.613,0.812,1.158l-0.345,1.97 C22.538,49.784,22.115,50.126,21.639,50.126z"/><path fill="#8d6c9f" d="M26.805,50.788c-0.027,0-0.056-0.001-0.084-0.003c-0.55-0.046-0.959-0.529-0.914-1.08 l0.165-1.992c0.046-0.55,0.532-0.95,1.079-0.915c0.551,0.046,0.96,0.529,0.915,1.08l-0.165,1.993 C27.757,50.393,27.319,50.788,26.805,50.788z"/><path fill="#8d6c9f" d="M32,51c-0.553,0-1-0.447-1-1v-2c0-0.553,0.447-1,1-1s1,0.447,1,1v2 C33,50.553,32.553,51,32,51z"/><path fill="#8d6c9f" d="M37.195,50.788c-0.515,0-0.952-0.396-0.996-0.917l-0.165-1.993 c-0.045-0.551,0.364-1.034,0.915-1.08c0.539-0.035,1.032,0.365,1.079,0.915l0.165,1.992 c0.045,0.551-0.364,1.034-0.914,1.08C37.251,50.787,37.223,50.788,37.195,50.788z"/><path fill="#8d6c9f" d="M42.361,50.126c-0.477,0-0.899-0.342-0.984-0.827l-0.345-1.97 c-0.095-0.545,0.269-1.062,0.812-1.158c0.553-0.095,1.062,0.27,1.158,0.812l0.345,1.97 c0.095,0.545-0.269,1.062-0.812,1.158C42.477,50.121,42.418,50.126,42.361,50.126z"/><path fill="#8d6c9f" d="M47.452,48.974c-0.436,0-0.836-0.287-0.961-0.728l-0.546-1.925 c-0.15-0.531,0.158-1.084,0.689-1.234c0.527-0.153,1.083,0.157,1.234,0.689l0.546,1.925 c0.15,0.531-0.158,1.084-0.689,1.234C47.635,48.962,47.543,48.974,47.452,48.974z"/><path fill="#8d6c9f" d="M52.399,47.239c-0.389,0-0.759-0.229-0.92-0.608l-0.782-1.84 c-0.217-0.509,0.021-1.096,0.528-1.312c0.508-0.217,1.096,0.021,1.312,0.528l0.782,1.84 c0.217,0.509-0.021,1.096-0.528,1.312C52.663,47.214,52.53,47.239,52.399,47.239z"/></g></svg>