<svg xmlns="http://www.w3.org/2000/svg"  viewBox="0 0 64 64" width="64px" height="64px"><path fill="#c2cde7" d="M31 52l-1.41 7.06A3.66 3.66 0 0 1 26 62h0a3.66 3.66 0 0 1-3.59-2.94L21 52zM12 34L4.94 35.41A3.66 3.66 0 0 0 2 39H2a3.66 3.66 0 0 0 2.94 3.59L12 44zM24.44 13.91L20.6 12.08a30 30 0 0 0-9.41-2.73l-6-.71a1 1 0 0 1-.14-2L17.69 3.3A15.91 15.91 0 0 1 34.54 9.14h0zM50.09 39.56l1.84 3.84a30 30 0 0 1 2.73 9.41l.71 6a1 1 0 0 0 2 .14L60.7 46.31a15.91 15.91 0 0 0-5.84-16.86h0z"/><path fill="#ffeb9b" d="M54.24,21.73l2.57-4.28A10.57,10.57,0,0,0,58.32,12V8.33a2.64,2.64,0,0,0-2.64-2.64H52a10.57,10.57,0,0,0-5.41,1.49L42.26,9.74"/><path fill="#72caaf" d="M22.84,56.74H17A9.53,9.53,0,0,1,7.5,47.2V41.38A40.75,40.75,0,0,1,19,13h0a19.07,19.07,0,0,1,16.3-5.63h0A25.22,25.22,0,0,1,56.83,28.93h0a19.07,19.07,0,0,1-5.61,16.28h0A40.75,40.75,0,0,1,22.84,56.74Z"/><path fill="#5dbc9d" d="M22.84,56.74H17A9.53,9.53,0,0,1,7.5,47.2V41.38q0-1.51.11-3C13,37,16,36,21,35c0,0,16-6.83,22-6,0,0,7-2,13.06-3.66a25.29,25.29,0,0,1,.76,3.6h0a19.07,19.07,0,0,1-5.61,16.28h0A40.75,40.75,0,0,1,22.84,56.74Z"/><path fill="#81d6bb" d="M21.26,33.9l2.65-8.66a2,2,0,0,1,1.33-1.33l8.66-2.65a2,2,0,0,1,2,.5l6.35,6.35a2,2,0,0,1,.5,2l-2.65,8.66a2,2,0,0,1-1.33,1.33L30.1,42.74a2,2,0,0,1-2-.5L21.76,35.9A2,2,0,0,1,21.26,33.9Z"/><path fill="#8d6c9f" d="M58,30.89a19.92,19.92,0,0,0-.17-2.09,25.94,25.94,0,0,0-.8-3.68s0-.06,0-.09,0,0,0-.08a26,26,0,0,0-1.36-3.57L57.67,18a11.58,11.58,0,0,0,1.65-6V8.33a3.65,3.65,0,0,0-3.64-3.64H52a11.57,11.57,0,0,0-5.92,1.63L42.48,8.44a26,26,0,0,0-7.06-2,19.81,19.81,0,0,0-2.06-.17,16.87,16.87,0,0,0-15.95-4L4.82,5.64A2.07,2.07,0,0,0,5.11,9.7l6,.71a28.57,28.57,0,0,1,7.24,1.88l0,0A41.52,41.52,0,0,0,7.18,33.87l-2.45.49a4.73,4.73,0,0,0,0,9.28L6.5,44V47.2A10.55,10.55,0,0,0,17,57.74h4l.31,1.53a4.73,4.73,0,0,0,9.28,0l.47-2.36A41.52,41.52,0,0,0,51.84,46a28.61,28.61,0,0,1,1.75,6.92l.71,6a2.05,2.05,0,0,0,1.91,1.82h.16a2,2,0,0,0,2-1.54l3.37-12.59A16.87,16.87,0,0,0,58,30.89ZM47.08,8A9.57,9.57,0,0,1,52,6.69h3.7a1.64,1.64,0,0,1,1.64,1.64V12A9.58,9.58,0,0,1,56,16.93L54.53,19.3A26.42,26.42,0,0,0,44.6,9.51Zm-35.77.24L5.75,7.61,18,4.34A14.74,14.74,0,0,1,30.14,6.39a20.17,20.17,0,0,0-10.07,4.29A31,31,0,0,0,11.32,8.28Zm8.39,5.44A18.1,18.1,0,0,1,35.15,8.38,24.3,24.3,0,0,1,54.76,24.61l-11.5,3.16a3,3,0,0,0-.31-.37L36.61,21a3,3,0,0,0-.47-.37l1.11-4.05a1,1,0,0,0-1.93-.53L34.2,20.19a3,3,0,0,0-.59.11L24.94,23a3,3,0,0,0-.4.18l-7-7C18.24,15.31,18.95,14.49,19.7,13.71Zm10.08,30.1a3,3,0,0,0,.61-.11L39.06,41a3,3,0,0,0,.4-.18l7.05,7.05a39.44,39.44,0,0,1-19.94,7.64Zm9.35-5.34a1,1,0,0,1-.25.41h0a1,1,0,0,1-.41.25l-8.66,2.65a1,1,0,0,1-1-.25l-6.35-6.35a1,1,0,0,1-.25-1l2.65-8.66a1,1,0,0,1,.25-.41h0a1,1,0,0,1,.41-.25l8.66-2.65a1,1,0,0,1,.29,0,1,1,0,0,1,.71.29l6.35,6.35a1,1,0,0,1,.25,1ZM20.3,33.61a3,3,0,0,0-.1.49L8.72,37.25a39.44,39.44,0,0,1,7.59-19.53l6.82,6.82a3,3,0,0,0-.18.4ZM5.15,41.54a2.59,2.59,0,0,1,0-5.07l1.69-.34q-.14,1.15-.22,2.3s0,.06,0,.09c-.06.95-.11,1.9-.11,2.85v.43ZM8.5,47.2V41.38q0-1,.05-2l12.07-3.31a3,3,0,0,0,.43.55L27.39,43a3,3,0,0,0,.45.37L24.45,55.7c-.54,0-1.07,0-1.61,0H17A8.54,8.54,0,0,1,8.5,47.2Zm20,11.64a2.59,2.59,0,0,1-5.07,0l-.22-1.12q1,0,2-.06h.05c1.2-.07,2.4-.18,3.58-.35ZM48.09,46.68l-7.22-7.22a3,3,0,0,0,.18-.4l2.65-8.66a3,3,0,0,0,.12-.71l11.51-3.16a24,24,0,0,1,.51,2.56,18.13,18.13,0,0,1-5.32,15.43C49.74,45.27,48.92,46,48.09,46.68ZM59.66,46,56.41,58.41l-.68-5.73a30.92,30.92,0,0,0-2.27-8.41,20.16,20.16,0,0,0,4.36-10.07A14.74,14.74,0,0,1,59.66,46Z"/><path fill="#8d6c9f" d="M36.91 14.1a1 1 0 0 0 .27 0 1 1 0 0 0 1-.74l.46-1.68a1 1 0 1 0-1.93-.53l-.46 1.68A1 1 0 0 0 36.91 14.1zM28.43 27L27 28.43a1 1 0 1 0 1.41 1.41l1.41-1.41A1 1 0 0 0 28.43 27zM32 30.55L30.55 32A1 1 0 1 0 32 33.38L33.38 32A1 1 0 0 0 32 30.55zM35.5 34.09L34.09 35.5a1 1 0 1 0 1.41 1.41l1.41-1.41a1 1 0 0 0-1.41-1.41z"/><path fill="#81d6bb" d="M47.5 31L48.74 33.26 51 34.5 48.74 35.74 47.5 38 46.26 35.74 44 34.5 46.26 33.26 47.5 31z"/><path fill="#8eddc0" d="M16.42 26L17.27 27.56 18.84 28.42 17.27 29.27 16.42 30.84 15.56 29.27 14 28.42 15.56 27.56 16.42 26z"/><path fill="#81d6bb" d="M16.65 42L17.23 43.06 18.3 43.65 17.23 44.23 16.65 45.3 16.07 44.23 15 43.65 16.07 43.06 16.65 42z"/></svg>