<svg xmlns="http://www.w3.org/2000/svg" class='dog-bone'  viewBox="0 0 500 500" width="70px" height="34px"><path fill="#D6E5E5" d="M224 411.3c-12.5 6.5-28.5 8.5-40.8 10.1-27 3.6-54.5 3.4-81.5 7.6-8.7 1.3-18.2 1.3-27 1.4-5.7.1-11.6 0-17.4-.9-.8.9-1.9 1.5-3.4 1.6-3.9.2-5.8 3.8-7 7.1-2.4 6.7-3 17.2 1.3 23.2 4.6 6.4 13.2 8.1 20.6 8.9 8.8.9 17.8.6 26.6.6 10.8-.1 21.6-.5 32.3-1.4 23-1.9 46.7-5 68.2-13.6 10-4 18-9.1 23.2-18.9C223.5 429.1 226.1 420 224 411.3zM145.2 328.1c.1-10 .4-20.8 4.4-30.1-8.4-.3-16.8-2.9-25.1-3.7-2.5-.3-8-1.1-10.5.7.2 1.8-.5 3.9-2.1 5.2-.1 1.2-.2 2.4-.2 3.4-.2 10.1 1.1 20.2 2 30.3.9 10.2.7 20.7.5 31 1.3 1 2 2.6 1.7 4.7 0 .2-.1.4-.1.6 10.4-.5 20.7-1.1 31-1.9-.1-.4-.2-.9-.2-1.4C146.6 353.9 145.1 341.1 145.2 328.1zM103.3 330.9c-1-10-2.5-20.5-1.5-30.6-1.5-.3-3-.6-4.6-.8-3.9-.3-7.7-1.3-11.7-1.6-2.1-.2-4.2-.2-6.3-.1-1 1.2-2.6 2-4.5 1.8-9.6-.8-17.4 4.9-20 14.2-2 7-1.8 14.1-1.7 21.2.1 8.2.3 16.5 1 24.7.3 3.6.6 7.3 1.3 10.9.2.9.4 1.8.7 2.7.4.2.7.4 1.1.7 15.5-1.8 31.2-2.7 46.8-3.3C104.2 357.4 104.6 344.1 103.3 330.9z"/><path fill="#FEBF10" d="M247.3,110.9c-0.9,5.4-3.3,10.5-7,14.7c-11.1,12.6-28.9,18.6-44.7,22.3c-14.2,3.3-28.5,5.3-43.1,5.5c-15.8,0.3-31.6,0.7-47.3-1.3c-7.4-0.9-16.7-2.4-24.5-6c0.6,9.2,3.1,18.3,7.8,26.3c6.9,11.7,17.3,20.9,29.4,27c28.1,14.1,64.7,14.4,92-1.9C239.7,179.8,254.9,144.1,247.3,110.9z"/><path fill="#71C598" d="M236.5,104.4c0-0.4,0-0.8,0-1.2c0-2.3,0-4.6-0.2-6.9c-0.1-1.5-0.4-2.7-0.9-3.3c-1.8-2.2-0.9-5.6,1.1-7.3c-18.2-28.3-52.8-44.9-86.7-36.7c-20.2,4.9-38.1,16.5-52.4,31.4c-10.8,11.2-21.9,26.4-21.1,42.2c2.9,0.4,5.6,2.7,5,6.4c-0.2,1.5-0.4,2.9-0.5,4.4c3.9,3.2,9.4,4.8,14,5.8c8.6,2,17.4,2.9,26.2,3.3c13.2,0.5,26.7,0.6,39.9-0.3c16.4-1.1,33.1-4.1,48.5-9.9C221.4,127.7,238,119.7,236.5,104.4z"/><path fill="#D6E5E5" d="M477.7 58.9c-2.6-7.2-8.8-11.1-16.1-12.8-23.4-5.3-47.7-5.5-71.5-6.9-17.5-1-35.4-6.6-53-4.7-7.6.8-15.5 3.7-18.5 11.5-2.8 7.4-1.3 15.8-.9 23.7 2.7-1 5.7-1.6 8.1-1.9 10.5-1.2 20.9 1 31.2 2.9 6.8 1.3 14.3.4 21.2.6 7 .1 14 .4 21 .9 11.3.8 22.6 1.6 33.9 2.1 11.3.5 22.8.9 34 3 4.1.8 8.5 1.7 12.6 3.2C479.8 73.3 480.1 65.6 477.7 58.9zM450.4 183.4c-3.7-13.2-6.7-27.4-6.3-41.3-9.4-.2-18.8-.4-28.1-.8.2 5.7 1 11.1 2 16.9 1.4 8.1 2.6 19.4 10.1 24.5 6.6 4.5 16.1 4 23.9 3.2C451.2 185.3 450.7 184.5 450.4 183.4zM230.7 379c-2.1.5-4.4-.5-5.6-2.1-.9-.2-1.8-.4-2.6-.5-6.8-1.2-13.6-1.6-20.5-1.6-14.8 0-29.5 1.3-44.2 2.8-38.7 4-77.8 2.4-116.2 9 .2 4.8-.9 10.2-.8 14 .1 3.9.2 8.6 2.7 11.8 2.3 2.9 6.1 4.7 9.6 5.7 9.5 2.6 19.4 2.4 29.2 1.9 9.5-.5 18.7-1.3 28.1-2.4 26.6-3 53.5-3 79.9-7.5C205.3 407.5 239.6 401 230.7 379zM488.6 106.6c-1.7-8.5-5.4-14.5-13.9-17.1-20.9-6.3-43.2-4.5-64.7-6.2-14.6-1.2-29-1.9-43.6-1.9-6 0-11.2-.6-17.1-1.7-5-.9-10.2-1.9-15.3-2-3.5-.1-11.9-.6-14.5 2.6-2.4 2.9-3.5 6.8-4.4 10.4-2.2 9.1-3.1 18.5-3.1 27.8 0 .3 0 .6-.1.9.1 0 .1 0 .2 0 33.6-1.9 65.5 10.1 98.8 11.6 11.5.5 23 .8 34.6 1 1.8-2.1 5.4-1.8 7.4.1 11.1.1 22.2.2 33.2.2.2-.4.4-.7.6-1.1C490.3 123.7 490.2 114.4 488.6 106.6zM408.4 162.7c-1.4-7.5-2.5-14.5-2.7-22-22.5-1.8-44.6-7.8-67-10.3.6.7 1.1 1.7 1.2 2.8.7 6.2-3.6 12.3-7.3 16.8-5.2 6.3-11.3 12-17.4 17.4-14.8 13.1-29.1 26.7-43.6 40.2-19.5 18.2-36.4 38.8-54.4 58.4-18.1 19.9-36.7 39.3-56.2 57.8-1.8 1.7-4 1.8-5.8 1 0 2.2.1 4.3.1 6.3.2 10.3 1.1 20.5 1.3 30.8 0 .2 0 .5 0 .7v3.4c0 .5-.1.9-.2 1.3 1.5-.1 3.1-.3 4.6-.4 15.5-1.5 31.2-3 46.7-2.3 6.2.3 13.3.6 19.9 2.2 10.2-14.9 27.7-24.1 40.3-36.8 18.2-18.4 35.9-37.3 55.6-54.1 9.9-8.4 19.5-17.3 28.9-26.3 8.6-8.2 18.1-16.5 25.2-25.9 5.7-7.5 12.4-14.1 18.6-21.1 5.6-6.4 12.5-13.5 14.8-22 .3-.9.7-1.7 1.3-2.3C410.5 173.5 409.4 167.9 408.4 162.7zM483.7 164c-1.3-7.2-3.2-14.3-5.5-21.3 0-.1-.1-.2-.1-.3-8 0-15.9-.1-23.9-.1-.5 12.6 2.5 25.9 5.8 37.8.6 2 0 3.6-1.1 4.8 6.9-1.1 13.7-2.7 20.5-4.2 1.8-.4 3.4.1 4.6 1.1C486 176.5 484.5 168.8 483.7 164z"/><path d="M499.6,113.5c-0.3-8.6-2.6-18-8-25c-1-1.3-2.1-2.4-3.3-3.4c0.9-0.9,1.5-2.1,1.5-3.7c0-8.7,0.1-17.5-2.6-25.9c-2.7-8.4-9.4-14.3-17.4-17.4c-11.8-4.6-25.4-5.4-37.9-6.5c-13.8-1.2-27.7-1.6-41.6-2.5c-19.7-1.2-40.1-8-59.8-3.8c-9.3,2-17.2,7.4-21.1,16.2c-4.4,9.8-2,21.1-1.8,31.4c0,1.9,0.9,3.2,2.1,3.9c-1.3,2.3-2.3,4.9-3.1,7.4c-3.5,11.2-4.5,23.3-4.5,34.9c0,3.6,3,4.9,5.7,4.4c-0.3,2.9,1.6,6,5.3,5.8c6.2-0.3,12.4-0.2,18.5,0.3c-1.2,0.9-2,2.3-1.8,4.3c0.5,4-5.1,9.8-8.1,13.1c-5.2,5.8-11.1,11-16.9,16.1c-15.1,13.3-29.8,27.3-44.4,41.1c-18.5,17.5-34.7,37.5-51.9,56.3c-17,18.6-34.5,36.9-52.8,54.3c0.6-6.2,2-12.3,5.4-17c2-2.8,0.9-5.9-1.2-7.5c-0.7-1.8-2.4-3-4.9-2.8c-13.8,1.6-41-10.9-50.2,2.8c-1.7-0.4-3.5-0.9-5.3-0.9c-4.6-0.1-9.1-1.3-13.6-1.7c-3.7-0.3-7.4-0.1-11.1-0.1c-1.8,0-3.1,0.8-3.8,1.9c-10.2,0.8-18.6,6-23.6,15.7c-4.6,8.9-4.4,19.1-4.3,28.9c0.1,10,0.4,20,1.4,29.9c0.3,2.7,0.5,7.4,1.7,11.4c-1.9,0.3-3.9,0.6-5.8,0.9c-0.9,0.2-1.7,0.5-2.3,1c-4.3-2.6-10.8,2.4-7,6.9c0.1,0.1,0.1,0.1,0.1,0.1c0.1,0.6,0.1,1.2,0.1,1.7c0.1,1.8,0,3.6-0.1,5.3c-0.2,4.7-0.5,9.4,0,14.2c0.9,8.6,5.2,15,12.4,19.1c-9.5,8.5-10,28.3-5.5,38.6c7.5,17,29.8,17.5,45.6,17.6c21.2,0.1,42.3-0.7,63.3-3.3c22.3-2.8,45-7.5,65-18c8.9-4.6,15.6-15.2,19.3-24.2c3.9-9.5,5.3-20.5,1.7-30.3c3.3-3,6-6.5,7.9-10.9c1.8-4.2,2.1-8.7,1.3-13c1.8-1.9,2.4-5.1,0-7.4c-1.3-1.3-2.8-2.3-4.4-3.3c4.6-5.9,10.7-10.7,16.5-15.3c8.5-6.7,16.5-13.4,24.2-21.2c8.9-9,17.7-18.2,26.7-27.1c9.5-9.4,19.5-18.1,29.5-27c18-16.2,37.5-32.2,52.4-51.3c10.2-13.1,25.5-24.6,32.3-40.3c0.9,0.8,1.8,1.6,2.9,2.3c17.2,11.6,42.3,3.5,60.7-0.6c0,0,0,0,0,0c1.8,2.5,5.4,3.5,7.6,0.4c5.3-7.2,4.9-16.5,3.7-25c-1-7.9-3.1-15.7-5.5-23.3h3.9c4.3,0,5.4-4.4,3.8-7.4C499.5,128.4,499.9,120.5,499.6,113.5z M318.6,46c3-7.8,10.9-10.7,18.5-11.5c17.6-2,35.5,3.6,53,4.7c23.9,1.4,48.1,1.6,71.5,6.9c7.3,1.6,13.5,5.6,16.1,12.8c2.4,6.7,2.1,14.4,2,21.5c-4.1-1.5-8.5-2.4-12.6-3.2c-11.2-2.1-22.6-2.6-34-3c-11.4-0.5-22.6-1.2-33.9-2.1c-7-0.5-14-0.7-21-0.9c-6.9-0.1-14.4,0.7-21.2-0.6c-10.3-1.9-20.7-4.2-31.2-2.9c-2.4,0.3-5.4,0.8-8.1,1.9C317.3,61.8,315.7,53.5,318.6,46z M111.8,303.7c0-1,0.1-2.2,0.2-3.4c1.5-1.3,2.3-3.4,2.1-5.2c2.5-1.8,8-0.9,10.5-0.7c8.3,0.8,16.7,3.4,25.1,3.7c-4,9.3-4.3,20.1-4.4,30.1c-0.1,12.9,1.4,25.8,1.4,38.8c0,0.5,0.1,1,0.2,1.4c-10.3,0.8-20.6,1.5-31,1.9c0.1-0.2,0.1-0.4,0.1-0.6c0.4-2.1-0.4-3.7-1.7-4.7c0.2-10.3,0.4-20.7-0.5-31C112.9,323.8,111.5,313.8,111.8,303.7z M54.9,313.8c2.6-9.2,10.4-14.9,20-14.2c1.9,0.2,3.4-0.6,4.5-1.8c2.1,0,4.2,0,6.3,0.1c3.9,0.3,7.7,1.3,11.7,1.6c1.6,0.1,3.1,0.4,4.6,0.8c-1.1,10.1,0.5,20.6,1.5,30.6c1.3,13.2,0.9,26.6,0.8,39.8c-15.6,0.7-31.3,1.5-46.8,3.3c-0.3-0.3-0.6-0.5-1.1-0.7c-0.3-0.9-0.5-1.8-0.7-2.7c-0.7-3.6-1-7.3-1.3-10.9c-0.7-8.2-0.9-16.4-1-24.7C53.1,327.8,52.9,320.8,54.9,313.8z M219.3,437c-5.3,9.8-13.2,15-23.2,18.9c-21.6,8.5-45.2,11.7-68.2,13.6c-10.7,0.9-21.5,1.3-32.3,1.4c-8.9,0.1-17.8,0.4-26.6-0.6c-7.4-0.8-16-2.4-20.6-8.9c-4.3-6.1-3.7-16.6-1.3-23.2c1.2-3.3,3.1-6.9,7-7.1c1.6-0.1,2.7-0.7,3.4-1.6c5.8,0.9,11.7,1,17.4,0.9c8.8-0.1,18.3-0.1,27-1.4c27-4.2,54.4-4,81.5-7.6c12.2-1.6,28.3-3.6,40.8-10.1C226.1,420,223.5,429.1,219.3,437z M190.4,410.1c-26.4,4.5-53.3,4.5-79.9,7.5c-9.4,1.1-18.7,1.8-28.1,2.4c-9.7,0.5-19.7,0.7-29.2-1.9c-3.5-1-7.3-2.8-9.6-5.7c-2.5-3.2-2.6-7.9-2.7-11.8c-0.1-3.8,1-9.2,0.8-14c38.4-6.6,77.5-5,116.2-9c14.7-1.5,29.4-2.9,44.2-2.8c6.9,0,13.7,0.4,20.5,1.6c0.9,0.2,1.7,0.3,2.6,0.5c1.2,1.7,3.5,2.6,5.6,2.1C239.6,401,205.3,407.5,190.4,410.1z M411.3,180.8c-2.3,8.4-9.1,15.6-14.8,22c-6.2,7-12.9,13.6-18.6,21.1c-7.2,9.5-16.6,17.8-25.2,25.9c-9.4,9-19,17.9-28.9,26.3c-19.8,16.7-37.4,35.7-55.6,54.1c-12.6,12.7-30.1,21.9-40.3,36.8c-6.6-1.6-13.7-1.9-19.9-2.2c-15.6-0.7-31.3,0.7-46.7,2.3c-1.5,0.2-3.1,0.3-4.6,0.4c0.1-0.4,0.2-0.8,0.2-1.3v-3.4c0-0.2,0-0.5,0-0.7c-0.2-10.3-1.1-20.5-1.3-30.8c0-2-0.1-4.1-0.1-6.3c1.8,0.8,4,0.6,5.8-1c19.6-18.5,38.1-37.9,56.2-57.8c17.9-19.6,34.9-40.3,54.4-58.4c14.4-13.5,28.8-27,43.6-40.2c6.1-5.4,12.2-11.1,17.4-17.4c3.7-4.5,8.1-10.6,7.3-16.8c-0.1-1.2-0.6-2.1-1.2-2.8c22.4,2.5,44.5,8.6,67,10.3c0.2,7.5,1.3,14.5,2.7,22c1,5.2,2.1,10.7,4.2,15.8C412,179.1,411.6,179.8,411.3,180.8z M428,182.7c-7.5-5-8.7-16.4-10.1-24.5c-1-5.8-1.7-11.2-2-16.9c9.4,0.4,18.7,0.7,28.1,0.8c-0.4,13.9,2.6,28.2,6.3,41.3c0.3,1.1,0.8,1.9,1.5,2.4C444.1,186.7,434.6,187.1,428,182.7z M484,181.7c-1.2-1-2.8-1.5-4.6-1.1c-6.8,1.5-13.6,3.1-20.5,4.2c1.1-1.2,1.6-2.9,1.1-4.8c-3.3-11.9-6.3-25.2-5.8-37.8c8,0.1,15.9,0.1,23.9,0.1c0,0.1,0.1,0.2,0.1,0.3c2.3,7,4.3,14.1,5.5,21.3C484.5,168.8,486,176.5,484,181.7z M486.9,131.1c-0.2,0.4-0.4,0.7-0.6,1.1c-11.1,0-22.2,0-33.2-0.2c-2-2-5.6-2.2-7.4-0.1c-11.5-0.2-23-0.5-34.6-1c-33.3-1.5-65.2-13.5-98.8-11.6c-0.1,0-0.1,0-0.2,0c0-0.3,0.1-0.6,0.1-0.9c0-9.3,0.9-18.7,3.1-27.8c0.9-3.6,2-7.5,4.4-10.4c2.6-3.2,10.9-2.6,14.5-2.6c5.1,0.1,10.3,1.1,15.3,2c5.8,1.1,11.1,1.7,17.1,1.7c14.6,0,29,0.8,43.6,1.9c21.5,1.7,43.8,0,64.7,6.2c8.5,2.6,12.1,8.6,13.9,17.1C490.2,114.4,490.3,123.7,486.9,131.1z"/><path d="M259.6,116.6c-5.4-38.9-36.5-71.4-74.9-79c-29.6-5.9-58.7,4.8-81.7,23.1C81.2,78,55.5,108.3,68.8,137.8c0.2,0.5,0.5,0.9,0.8,1.2c-0.3,13.2,2.5,26.1,8.9,38c7.4,13.9,19.9,24.6,33.7,31.9c28.9,15.3,66.2,16,95.7,2.1C243.2,194.5,264.9,155.4,259.6,116.6z M76.4,122.7c-0.8-15.9,10.2-31,21.1-42.2c14.3-14.9,32.2-26.6,52.4-31.4c33.9-8.1,68.4,8.4,86.7,36.7c-2,1.7-2.9,5.2-1.1,7.3c0.5,0.6,0.7,1.8,0.9,3.3c0.2,2.3,0.2,4.6,0.2,6.9c0,0.4,0,0.8,0,1.2c1.5,15.2-15.1,23.3-27.1,27.9c-15.4,5.9-32.1,8.8-48.5,9.9c-13.2,0.9-26.7,0.8-39.9,0.3c-8.8-0.4-17.6-1.3-26.2-3.3c-4.6-1.1-10.1-2.6-14-5.8c0.1-1.5,0.3-2.9,0.5-4.4C82,125.4,79.3,123.1,76.4,122.7z M209.9,197.6c-27.3,16.3-63.9,16-92,1.9c-12.1-6.1-22.5-15.3-29.4-27c-4.8-8.1-7.2-17.1-7.8-26.3c7.8,3.6,17.2,5.1,24.5,6c15.7,2,31.6,1.5,47.3,1.3c14.6-0.2,28.9-2.2,43.1-5.5c15.9-3.7,33.6-9.7,44.7-22.3c3.7-4.2,6.1-9.3,7-14.7C254.9,144.1,239.7,179.8,209.9,197.6z"/></svg>